<svg width="140" height="110" viewBox="0 0 140 110" fill="none" xmlns="http://www.w3.org/2000/svg">
<g clip-path="url(#clip0_2254_676)">
<path d="M140 102.487H0V109.781H140V102.487Z" fill="#009EE3"/>
<path d="M10.5527 47.5967H16.0994C20.4575 47.5967 21.2859 50.5141 21.2859 55.4665C21.2859 57.9157 21.6641 63.5164 15.9734 63.5164H10.5527V47.5967ZM13.8844 61.0672H15.4871C17.5221 61.0672 17.9183 59.5365 17.9183 55.5565C17.9183 52.6211 17.9183 50.0459 15.5952 50.0459H13.8844V61.0672Z" fill="#0050A0"/>
<path d="M27.1751 47.5967V50.0459H24.0596V47.5967H27.1751ZM27.1751 63.5164H24.0596V52.387H27.1751V63.5164Z" fill="#0050A0"/>
<path d="M32.7932 58.4379C32.7932 59.7526 32.8473 61.7516 34.1979 61.7516C35.2965 61.7516 35.5306 60.689 35.5306 59.7706H38.6821C38.6461 60.9772 38.2319 61.9677 37.4935 62.652C36.7732 63.3363 35.6566 63.7325 34.2159 63.7325C30.2 63.7325 29.6777 61.2833 29.6777 57.8076C29.6777 54.7642 30.1099 52.1709 34.2159 52.1709C38.3219 52.1709 38.8622 54.8902 38.7541 58.456H32.8113L32.7932 58.4379ZM35.6386 56.7091C35.6386 55.6286 35.6746 54.0798 34.1979 54.0798C32.7212 54.0798 32.7932 55.7546 32.7932 56.7091H35.6386Z" fill="#0050A0"/>
<path d="M46.0303 63.5164V47.5967H49.3619V60.8691H54.3503V63.5164H46.0483H46.0303Z" fill="#0050A0"/>
<path d="M58.9964 47.5967V50.0459H55.8809V47.5967H58.9964ZM58.9964 63.5164H55.8809V52.387H58.9964V63.5164Z" fill="#0050A0"/>
<path d="M61.752 47.5967H64.8675V53.4315H64.9035C65.5338 52.477 66.3082 52.1529 67.4427 52.1529C70.5762 52.1529 70.4862 55.6106 70.4862 57.8617C70.4862 60.1128 70.5942 63.7325 67.3707 63.7325C66.1821 63.7325 65.3177 63.3543 64.7414 62.2738H64.7054V63.5164H61.752V47.5967ZM67.4427 57.8437C67.4427 55.6106 67.4607 54.0798 66.1281 54.0798C64.7954 54.0798 64.8675 55.6286 64.8675 57.8437C64.8675 60.635 65.0656 61.8056 66.1281 61.8056C67.2446 61.8056 67.4427 60.635 67.4427 57.8437Z" fill="#0050A0"/>
<path d="M75.654 58.4379C75.654 59.7526 75.69 61.7516 77.0587 61.7516C78.1572 61.7516 78.3734 60.689 78.3734 59.7706H81.5249C81.4889 60.9772 81.0927 61.9677 80.3363 62.652C79.616 63.3363 78.4994 63.7325 77.0587 63.7325C73.0428 63.7325 72.5205 61.2833 72.5205 57.8076C72.5205 54.7642 72.9707 52.1709 77.0587 52.1709C81.1467 52.1709 81.705 54.8902 81.5969 58.456H75.654V58.4379ZM78.4814 56.7091C78.4814 55.6286 78.5174 54.0798 77.0407 54.0798C75.564 54.0798 75.636 55.7546 75.636 56.7091H78.4814Z" fill="#0050A0"/>
<path d="M86.7478 52.3874V53.8101H86.7838C87.3601 52.5315 88.4226 52.1533 89.6652 52.1533V54.9267C86.9279 54.7466 86.8919 56.3314 86.8919 57.4299V63.4988H83.7764V52.3694H86.7298L86.7478 52.3874Z" fill="#0050A0"/>
<path d="M99.5882 61.4453C99.5882 62.1296 99.6782 62.832 99.7503 63.5163H96.8689L96.7428 62.0396H96.7068C96.0405 63.1921 95.14 63.7324 93.7894 63.7324C91.6283 63.7324 90.8359 62.1296 90.8359 60.1847C90.8359 56.5109 93.6813 56.3488 96.5627 56.3848V55.5204C96.5627 54.5659 96.4367 53.8816 95.3021 53.8816C94.1676 53.8816 94.1315 54.692 94.1315 55.5744H91.0881C91.0881 54.2238 91.5023 53.3774 92.2406 52.8551C92.943 52.3329 93.9515 52.1348 95.158 52.1348C99.102 52.1348 99.6062 53.8276 99.6062 55.8626V61.4273L99.5882 61.4453ZM93.8434 60.0586C93.8434 60.851 93.9695 61.8235 94.996 61.8235C96.8329 61.8235 96.5447 59.3563 96.5447 58.1497C94.996 58.2217 93.8614 58.0777 93.8614 60.0766L93.8434 60.0586Z" fill="#0050A0"/>
<path d="M105.531 47.5967V63.5164H102.415V47.5967H105.531Z" fill="#0050A0"/>
<path d="M111.149 58.4379C111.149 59.7526 111.185 61.7516 112.554 61.7516C113.652 61.7516 113.868 60.689 113.868 59.7706H117.02C116.984 60.9772 116.588 61.9677 115.831 62.652C115.111 63.3363 113.995 63.7325 112.554 63.7325C108.538 63.7325 108.016 61.2833 108.016 57.8076C108.016 54.7642 108.466 52.1709 112.554 52.1709C116.642 52.1709 117.2 54.8902 117.092 58.456H111.149V58.4379ZM113.995 56.7091C113.995 55.6286 114.031 54.0798 112.554 54.0798C111.077 54.0798 111.149 55.7546 111.149 56.7091H113.995Z" fill="#0050A0"/>
<path d="M122.423 53.5035H122.477C122.783 52.9993 123.162 52.6751 123.576 52.477C124.008 52.2609 124.53 52.1709 125.107 52.1709C126.583 52.1709 127.88 53.0533 127.88 54.6021V63.5344H124.782V55.8627C124.782 54.8722 124.602 54.0978 123.612 54.0978C122.621 54.0978 122.441 54.8722 122.441 55.8627V63.5344H119.344V52.405H122.441V53.5216L122.423 53.5035Z" fill="#0050A0"/>
<path d="M11.5976 4.55601C11.3455 2.73713 10.427 2.73713 8.5541 2.6831C7.59963 2.62908 7.38353 2.6831 7.38353 1.51253C7.38353 0.504045 7.38353 0.0898438 8.30197 0.0898438C11.1834 0.0898438 14.1188 0.197896 17.0002 0.197896C23.1772 0.197896 29.3002 0.0898438 35.4772 0.0898438C36.0895 0.0898438 36.3956 0.197896 36.3956 0.756167C36.3956 1.00829 35.8914 4.80814 35.4772 8.30183C35.4231 9.00417 35.117 9.22028 33.8564 9.22028C32.5958 9.22028 32.6498 9.16625 32.4337 8.26582C31.7314 4.37593 31.6773 4.06978 30.1106 3.76363C27.8775 3.36744 24.5999 3.36744 22.9791 3.36744C20.9081 3.36744 20.8541 3.81766 20.8 4.28588C20.692 7.52746 20.692 13.4523 20.656 14.6049C25.7705 14.5509 28.2016 14.4968 29.1561 13.6504C29.6604 13.2002 29.8224 12.5339 30.0205 11.1652C30.0746 10.661 30.2186 10.5529 31.4432 10.5529C32.6678 10.5529 32.7579 11.0031 32.7579 11.3633C32.7579 12.732 32.6138 13.9386 32.6138 16.3157C32.6138 18.999 32.7579 20.8179 32.7579 21.4302C32.7579 22.3487 32.2536 22.4387 31.4432 22.4387C30.1826 22.4387 30.1826 22.2406 29.8765 20.7639C29.4623 18.945 29.1741 18.1346 26.1847 17.9365C25.6264 17.8825 23.0511 17.6844 20.71 17.8285C20.656 19.7014 20.5659 27.4451 21.0702 28.7598C21.4304 29.6782 21.7725 29.6782 25.2122 29.8223C25.7705 29.8223 26.0226 29.9303 26.0226 30.9929C26.0226 32.0554 26.0226 32.4156 25.0681 32.4156C22.2768 32.4156 19.5034 32.2715 16.7121 32.2715C13.9207 32.2715 10.8952 32.4156 8.01383 32.4156C7.40154 32.4156 7.14941 32.2715 7.14941 31.7132C7.14941 30.2005 7.14941 30.0384 7.76171 29.9844C11.3995 29.4801 11.5075 29.4801 11.6516 24.1135C11.7597 20.3137 11.8497 6.64503 11.5976 4.57402V4.55601Z" fill="#0050A0"/>
<path d="M73.0251 28.7956C67.9106 32.3433 61.0853 32.3433 55.9708 32.3433C54.2599 32.3433 46.8043 32.2892 42.3021 32.3433H40.7894C40.3392 32.3433 40.2852 32.1452 40.2852 30.9206C40.2852 30.1642 40.2852 29.9661 40.9875 29.8581C43.6528 29.5579 45.0335 27.619 45.1295 24.0412C45.2376 20.2414 45.3276 6.62679 45.0755 4.55578C44.8234 2.7369 43.9049 2.7369 42.032 2.68287C41.0775 2.68287 40.8614 2.68287 40.8614 1.47629C40.8614 0.413771 40.8614 0.0175781 41.7799 0.0175781C43.9589 0.0175781 46.084 0.161648 48.263 0.161648C51.7027 0.161648 55.1964 0.0175781 58.6361 0.0175781C65.4614 0.0175781 69.6214 0.467797 72.863 2.44876C78.5898 5.8344 79.4902 11.4531 79.4902 15.199C79.4902 18.9448 78.5357 25.0137 73.0071 28.8136L73.0251 28.7956ZM54.5481 4.66383C54.1879 7.04099 54.2419 19.0888 54.296 22.5825C54.296 28.5614 54.296 29.2638 58.2939 29.2638C60.473 29.2638 62.598 28.8676 64.5249 27.8951C69.5314 25.4099 69.9456 18.4405 69.9456 15.9013C69.9456 11.6512 68.883 7.09502 65.2453 4.57379C63.6245 3.45725 61.4454 2.89898 58.6181 2.89898C55.2324 2.89898 54.7282 3.25915 54.5661 4.66383H54.5481Z" fill="#0050A0"/>
<path d="M96.257 26.3099C96.257 29.5515 96.9593 29.7496 99.5886 29.7496C101.263 29.7496 101.353 29.8576 101.353 30.7581C101.353 32.2168 101.299 32.3789 100.291 32.3789C97.6617 32.3789 95.0864 32.2348 92.4391 32.2348C89.5577 32.2348 86.6223 32.3789 83.7409 32.3789C82.7865 32.3789 82.7324 32.2708 82.7324 31.2623C82.7324 30.0918 82.7324 30.0017 83.939 29.8036C85.7039 29.6055 86.8204 29.4434 86.9825 26.8142C87.1806 23.2664 87.1806 18.7643 87.1806 10.8764V7.02255C87.1806 3.38478 86.7304 2.82651 84.4973 2.71846C82.8765 2.61041 82.7684 2.61041 82.7684 1.45785C82.7684 0.305288 82.7684 0.0351562 83.7229 0.0351562C85.3977 0.0351562 87.8289 0.0891825 93.6457 0.0891825C103.623 0.0891825 106.9 0.0891824 110.304 2.10616C113.185 3.835 114.158 6.80645 114.158 9.34568C114.158 16.4771 107.584 19.8268 100.903 19.8268C99.3365 19.8268 97.9138 19.7187 96.203 19.6287L96.257 26.3099ZM98.1299 16.8013C104.451 16.8013 104.505 11.7408 104.505 10.066C104.505 2.93456 99.9488 2.93456 98.1839 2.93456C96.6172 2.93456 96.257 2.93456 96.257 4.10513C96.1489 7.95901 96.1129 12.8574 96.203 16.6572C96.7612 16.7653 97.3195 16.8013 98.1299 16.8013Z" fill="#0050A0"/>
<path d="M10.6973 83.6592V68.0348H13.9605V83.6592H10.6973ZM17.8504 83.6592L14.0469 75.1446L17.6343 68.0348H21.3297L17.2885 74.9718L21.589 83.6592H17.8504ZM27.7542 78.3862H27.2788C25.8813 78.3862 25.1826 79.0561 25.1826 80.396C25.1826 81.4909 25.5644 82.0384 26.3279 82.0384C27.2788 82.0384 27.7542 81.2316 27.7542 79.618V78.3862ZM27.9703 83.6592L27.9055 82.3625C27.286 83.371 26.3351 83.8753 25.0529 83.8753C23.108 83.8753 22.1355 82.7659 22.1355 80.5473C22.1355 79.0489 22.6181 78.0116 23.5834 77.4354C24.3326 76.9887 25.4851 76.7654 27.0411 76.7654H27.7542V76.1819C27.7542 75.5336 27.7038 75.087 27.603 74.8421C27.4445 74.4243 27.1203 74.2154 26.6305 74.2154C25.8381 74.2154 25.4419 74.6836 25.4419 75.6201V75.8146H22.4381V75.6201C22.4381 73.5455 23.8715 72.5082 26.7385 72.5082C28.1648 72.5082 29.1877 72.7963 29.8072 73.3726C30.4267 73.9345 30.7365 74.8997 30.7365 76.2684V80.2447C30.7365 81.5558 30.8013 82.6939 30.931 83.6592H27.9703ZM38.6797 83.6592V76.3981C38.6797 75.7209 38.6221 75.2311 38.5068 74.9285C38.3339 74.5251 37.9882 74.3234 37.4695 74.3234C36.533 74.3234 36.0648 75.1086 36.0648 76.679V83.6592H33.0177V74.5179C33.0177 73.6823 32.9961 73.0988 32.9529 72.7675H36.0216L36.0432 73.8696C36.6627 72.962 37.592 72.5082 38.831 72.5082C39.8683 72.5082 40.6102 72.7747 41.0568 73.3078C41.5035 73.8408 41.7268 74.6764 41.7268 75.8146V83.6592H38.6797ZM49.2839 83.6808C48.8661 83.7672 48.297 83.8105 47.5766 83.8105C47.0004 83.8105 46.5105 83.76 46.1071 83.6592C45.7181 83.5583 45.4012 83.3999 45.1563 83.1837C44.9257 82.9532 44.7529 82.6507 44.6376 82.2761C44.5368 81.8871 44.4863 81.4117 44.4863 80.8498V74.626H43.0817V72.7675H44.4863V70.909L47.5118 69.742V72.7675H49.1974V74.626H47.5118V80.504C47.5118 80.9795 47.5694 81.3108 47.6847 81.4981C47.8288 81.7575 48.1385 81.8871 48.6139 81.8871C48.6716 81.8871 48.8949 81.8655 49.2839 81.8223V83.6808ZM56.1271 77.0248C56.1271 76.1603 56.0623 75.5408 55.9326 75.1663C55.7453 74.6332 55.3564 74.3667 54.7657 74.3667C54.1174 74.3667 53.6996 74.7124 53.5123 75.404C53.3826 75.8218 53.3178 76.5205 53.3178 77.5002V79.4884C53.3178 80.2519 53.3826 80.8138 53.5123 81.174C53.7284 81.7647 54.139 82.06 54.7441 82.06C55.3492 82.06 55.7526 81.743 55.9542 81.1091C56.0695 80.7346 56.1271 80.1079 56.1271 79.229V77.0248ZM59.2174 77.9972C59.2174 80.0142 58.9797 81.4333 58.5043 82.2545C57.856 83.3638 56.6026 83.9185 54.7441 83.9185C52.9432 83.9185 51.7042 83.4071 51.0271 82.3842C50.5084 81.563 50.2491 80.1871 50.2491 78.2566C50.2491 76.3981 50.5228 75.0294 51.0703 74.1506C51.7618 73.0556 53.0008 72.5082 54.7873 72.5082C56.5882 72.5082 57.8128 72.998 58.4611 73.9777C58.9653 74.7412 59.2174 76.0811 59.2174 77.9972ZM66.8113 83.6592V76.3981C66.8113 75.7209 66.7537 75.2311 66.6384 74.9285C66.4656 74.5251 66.1198 74.3234 65.6011 74.3234C64.6647 74.3234 64.1965 75.1086 64.1965 76.679V83.6592H61.1494V74.5179C61.1494 73.6823 61.1278 73.0988 61.0845 72.7675H64.1532L64.1748 73.8696C64.7943 72.962 65.7236 72.5082 66.9626 72.5082C67.9999 72.5082 68.7419 72.7747 69.1885 73.3078C69.6351 73.8408 69.8584 74.6764 69.8584 75.8146V83.6592H66.8113ZM76.8968 83.6592V81.0011L83.3152 70.3471H77.221V68.0348H86.6432V70.6497L80.2681 81.3469H86.7512V83.6592H76.8968ZM94.0998 83.6592L94.0782 82.4922C93.4587 83.4143 92.5439 83.8753 91.3337 83.8753C90.2964 83.8753 89.5472 83.6304 89.0862 83.1405C88.6252 82.6507 88.3946 81.8655 88.3946 80.785V72.7675H91.4417V80.007C91.4417 80.6553 91.4994 81.1308 91.6146 81.4333C91.7875 81.8655 92.1333 82.0816 92.6519 82.0816C93.574 82.0816 94.035 81.3324 94.035 79.8341V72.7675H97.0821V81.8871C97.0821 82.449 97.1037 83.0397 97.1469 83.6592H94.0998ZM89.6913 70.6064V68.2509H92.1117V70.6064H89.6913ZM93.4731 70.6064V68.2509H95.8935V70.6064H93.4731ZM105.245 75.1446C105.115 75.1302 105.007 75.123 104.921 75.123C104.834 75.1086 104.769 75.1014 104.726 75.1014C103.242 75.1014 102.5 75.9802 102.5 77.7379V83.6592H99.4531V74.8205C99.4531 74.0425 99.4315 73.3582 99.3883 72.7675H102.306L102.349 74.1722C102.882 73.0916 103.811 72.5514 105.137 72.5514C105.151 72.5658 105.166 72.573 105.18 72.573C105.194 72.573 105.216 72.5802 105.245 72.5946V75.1446ZM106.586 83.6592V72.7675H109.633V83.6592H106.586ZM106.586 70.6064V68.1645H109.633V70.6064H106.586ZM120.352 79.7693C120.323 81.0515 120.049 82.0096 119.53 82.6435C118.81 83.4935 117.636 83.9185 116.008 83.9185C114.279 83.9185 113.076 83.4503 112.399 82.5138C111.837 81.7214 111.556 80.4176 111.556 78.6023C111.556 76.5853 111.816 75.1302 112.334 74.237C113.026 73.0844 114.272 72.5082 116.073 72.5082C117.571 72.5082 118.637 72.7963 119.271 73.3726C119.963 74.0065 120.308 75.051 120.308 76.5061H117.391C117.362 75.8434 117.297 75.368 117.197 75.0798C116.995 74.6044 116.627 74.3667 116.094 74.3667C115.403 74.3667 114.956 74.7701 114.755 75.5769C114.654 75.9658 114.603 76.8663 114.603 78.2782C114.603 79.6324 114.654 80.504 114.755 80.893C114.942 81.671 115.367 82.06 116.03 82.06C116.966 82.06 117.441 81.2964 117.456 79.7693H120.352ZM127.591 83.6592V76.4197C127.591 75.7713 127.533 75.2887 127.418 74.9718C127.245 74.5395 126.899 74.3234 126.381 74.3234C125.444 74.3234 124.976 75.0942 124.976 76.6358V83.6592H121.929V68.0348H124.976V73.8264C125.639 72.9476 126.575 72.5082 127.785 72.5082C128.823 72.5082 129.572 72.8035 130.033 73.3942C130.436 73.8984 130.638 74.7052 130.638 75.8146V83.6592H127.591Z" fill="#009EE3"/>
</g>
<defs>
<clipPath id="clip0_2254_676">
<rect width="140" height="109.781" fill="white"/>
</clipPath>
</defs>
</svg>
