<svg width="26" height="26" viewBox="0 0 26 26" fill="none" xmlns="http://www.w3.org/2000/svg">
<path d="M1.0625 9.02083H24.9375M6.36806 1.0625V3.71528M19.6319 1.0625V3.71528M5.04167 14.3264H7.69444M5.04167 19.6319H7.69444M11.6736 14.3264H14.3264M11.6736 19.6319H14.3264M18.3056 14.3264H20.9583M18.3056 19.6319H20.9583M5.30694 24.9375H20.6931C22.1787 24.9375 22.9217 24.9375 23.4891 24.6483C23.9882 24.3941 24.3941 23.9882 24.6483 23.4891C24.9375 22.9217 24.9375 22.1787 24.9375 20.6931V7.95972C24.9375 6.47402 24.9375 5.73118 24.6483 5.16372C24.3941 4.66456 23.9882 4.25874 23.4891 4.00442C22.9217 3.71528 22.1787 3.71528 20.6931 3.71528H5.30694C3.82126 3.71528 3.0784 3.71528 2.51094 4.00442C2.01178 4.25874 1.60596 4.66456 1.35164 5.16372C1.0625 5.73118 1.0625 6.47402 1.0625 7.95972V20.6931C1.0625 22.1787 1.0625 22.9217 1.35164 23.4891C1.60596 23.9882 2.01178 24.3941 2.51094 24.6483C3.0784 24.9375 3.82124 24.9375 5.30694 24.9375Z" stroke="currentColor" stroke-width="2" stroke-linecap="round" stroke-linejoin="round"/>
</svg>
