<svg width="24" height="26" viewBox="0 0 24 26" fill="currentColor" xmlns="http://www.w3.org/2000/svg">
<path fill-rule="evenodd" clip-rule="evenodd" d="M19 24C17.343 24 16 22.657 16 21C16 19.343 17.343 18 19 18C20.657 18 22 19.343 22 21C22 22.657 20.657 24 19 24ZM5 16C3.343 16 2 14.657 2 13C2 11.344 3.343 10 5 10C6.657 10 8 11.344 8 13C8 14.657 6.657 16 5 16ZM19 2C20.657 2 22 3.343 22 5C22 6.657 20.657 8 19 8C17.343 8 16 6.657 16 5C16 3.343 17.343 2 19 2ZM19 16C17.23 16 15.685 16.925 14.796 18.312L9.44101 15.252C9.78701 14.572 10 13.814 10 13C10 12.497 9.90302 12.021 9.76501 11.563L15.336 8.38C16.249 9.37 17.547 10 19 10C21.762 10 24 7.762 24 5C24 2.238 21.762 0 19 0C16.238 0 14 2.238 14 5C14 5.503 14.097 5.97899 14.235 6.43799L8.664 9.62C7.751 8.63099 6.453 8 5 8C2.238 8 0 10.238 0 13C0 15.762 2.238 18 5 18C6.14 18 7.17899 17.604 8.01999 16.962L8 17L14.055 20.46C14.035 20.64 14 20.814 14 21C14 23.762 16.238 26 19 26C21.762 26 24 23.762 24 21C24 18.238 21.762 16 19 16Z" />
</svg>
