<svg width="30" height="30" viewBox="0 0 30 30" fill="currentColor" xmlns="http://www.w3.org/2000/svg">
<path fill-rule="evenodd" clip-rule="evenodd" d="M29.1421 4.00053C30.01 3.13271 30.01 1.72569 29.1421 0.857834C28.2743 -0.0100219 26.8673 -0.00999003 25.9994 0.857834L15 11.8573L4.00056 0.857834C3.13274 -0.00999003 1.72572 -0.0100219 0.857865 0.857834C-0.00999225 1.72569 -0.00996039 3.13271 0.857864 4.00053L11.8573 15L0.857865 25.9994C-0.0099909 26.8673 -0.0099909 28.2742 0.857865 29.1421C1.72572 30.01 3.13271 30.01 4.00056 29.1421L15 18.1427L25.9994 29.1421C26.8673 30.01 28.2743 30.01 29.1421 29.1421C30.01 28.2742 30.01 26.8673 29.1421 25.9994L18.1427 15L29.1421 4.00053Z"/>
</svg>
